<svg xmlns="http://www.w3.org/2000/svg" version="1.1" xmlns:xlink="http://www.w3.org/1999/xlink" xmlns:svgjs="http://svgjs.com/svgjs" width="1440" height="560" preserveAspectRatio="none" viewBox="0 0 1440 560">
    <g mask="url(&quot;#SvgjsMask2625&quot;)" fill="none">
        <g mask="url(&quot;#SvgjsMask2626&quot;)">
            <path d="M429 319L451 297L473 297L495 297L517 297L539 297M1309 297L1331 275L1353 275L1375 275M715 297L737 319L759 319L781 319L803 319L825 319L847 319L869 297L891 297L913 297L935 319L957 319L979 319L1001 319M649 297L671 319M1001 297L1023 275L1045 275L1067 275L1089 275M1287 297L1309 275M1221 297L1243 319L1265 341L1287 341L1309 341M825 297L847 275L869 253L891 253M737 297L759 275L781 275L803 275L825 275L847 253L869 231L891 231L913 231M143 319L165 297L187 297L209 297L231 297L253 297M11 275L33 297M693 297L715 319L737 341M583 297L605 319L627 319M539 319L561 319L583 319L605 341L627 341L649 341L671 341L693 341L715 341L737 363L759 363L781 363L803 363M561 297L583 275L605 275L627 275M-11 275L11 275L33 275L55 297L77 297L99 297L121 297L143 319L165 319L187 319L209 319L231 319L253 319L275 297L297 297L319 297L341 297L363 297L385 319L407 319L429 319L451 319L473 319L495 319L517 319L539 319L561 297L583 297L605 297L627 297L649 297L671 297L693 297L715 297L737 297L759 297L781 297L803 297L825 297L847 297L869 275L891 275L913 275L935 297L957 297L979 297L1001 297L1023 297L1045 297L1067 297L1089 297L1111 275L1133 275L1155 275L1177 297L1199 297L1221 297L1243 297L1265 297L1287 297L1309 297L1331 297" stroke="#3a7cc3" stroke-width="3.67"></path>
            <path d="M1325.5 297 a5.5 5.5 0 1 0 11 0 a5.5 5.5 0 1 0 -11 0zM533.5 297 a5.5 5.5 0 1 0 11 0 a5.5 5.5 0 1 0 -11 0zM1369.5 275 a5.5 5.5 0 1 0 11 0 a5.5 5.5 0 1 0 -11 0zM995.5 319 a5.5 5.5 0 1 0 11 0 a5.5 5.5 0 1 0 -11 0zM665.5 319 a5.5 5.5 0 1 0 11 0 a5.5 5.5 0 1 0 -11 0zM1083.5 275 a5.5 5.5 0 1 0 11 0 a5.5 5.5 0 1 0 -11 0zM1303.5 275 a5.5 5.5 0 1 0 11 0 a5.5 5.5 0 1 0 -11 0zM1303.5 341 a5.5 5.5 0 1 0 11 0 a5.5 5.5 0 1 0 -11 0zM885.5 253 a5.5 5.5 0 1 0 11 0 a5.5 5.5 0 1 0 -11 0zM907.5 231 a5.5 5.5 0 1 0 11 0 a5.5 5.5 0 1 0 -11 0zM247.5 297 a5.5 5.5 0 1 0 11 0 a5.5 5.5 0 1 0 -11 0zM27.5 297 a5.5 5.5 0 1 0 11 0 a5.5 5.5 0 1 0 -11 0zM731.5 341 a5.5 5.5 0 1 0 11 0 a5.5 5.5 0 1 0 -11 0zM621.5 319 a5.5 5.5 0 1 0 11 0 a5.5 5.5 0 1 0 -11 0zM797.5 363 a5.5 5.5 0 1 0 11 0 a5.5 5.5 0 1 0 -11 0zM621.5 275 a5.5 5.5 0 1 0 11 0 a5.5 5.5 0 1 0 -11 0z" fill="#3a7cc3"></path>
            <path d="M209 341L231 363L253 363L275 363M341 319L363 341M385 341L407 363L429 363L451 363L473 363M319 319L341 341M187 341L209 363M297 319L319 341L341 363M-11 297L11 319L33 319L55 319L77 319L99 319L121 319L143 341L165 341L187 341L209 341L231 341L253 341L275 319L297 319L319 319L341 319L363 319L385 341L407 341L429 341L451 341L473 341L495 341" stroke="#dd1133" stroke-width="3.67"></path>
            <path d="M489.5 341 a5.5 5.5 0 1 0 11 0 a5.5 5.5 0 1 0 -11 0zM269.5 363 a5.5 5.5 0 1 0 11 0 a5.5 5.5 0 1 0 -11 0zM357.5 341 a5.5 5.5 0 1 0 11 0 a5.5 5.5 0 1 0 -11 0zM467.5 363 a5.5 5.5 0 1 0 11 0 a5.5 5.5 0 1 0 -11 0zM335.5 341 a5.5 5.5 0 1 0 11 0 a5.5 5.5 0 1 0 -11 0zM203.5 363 a5.5 5.5 0 1 0 11 0 a5.5 5.5 0 1 0 -11 0zM335.5 363 a5.5 5.5 0 1 0 11 0 a5.5 5.5 0 1 0 -11 0z" fill="#dd1133"></path>
            <path d="M77 275L99 253L121 231M165 275L187 253L209 231L231 231L253 231M231 275L253 253L275 253L297 253L319 275M-11 253L11 253L33 253L55 253L77 275L99 275L121 275L143 275L165 275L187 275L209 275L231 275L253 275L275 275L297 275" stroke="#dd1133" stroke-width="3.67"></path>
            <path d="M291.5 275 a5.5 5.5 0 1 0 11 0 a5.5 5.5 0 1 0 -11 0zM115.5 231 a5.5 5.5 0 1 0 11 0 a5.5 5.5 0 1 0 -11 0zM247.5 231 a5.5 5.5 0 1 0 11 0 a5.5 5.5 0 1 0 -11 0zM313.5 275 a5.5 5.5 0 1 0 11 0 a5.5 5.5 0 1 0 -11 0z" fill="#dd1133"></path>
            <path d="M847 451L869 429M935 451L957 473L979 473L1001 473L1023 473L1045 473L1067 473L1089 473L1111 473M1045 429L1067 407M1199 429L1221 451L1243 451L1265 451L1287 473L1309 473L1331 473L1353 495L1375 495L1397 495M407 385L429 385L451 385L473 385L495 385L517 385L539 385L561 385L583 385L605 385L627 385M825 451L847 473L869 473L891 473L913 473L935 473L957 495L979 495L1001 495L1023 495L1045 495L1067 495L1089 517L1111 517L1133 517L1155 517M605 429L627 407L649 407L671 407L693 407M627 429L649 451L671 451L693 451L715 451M583 429L605 451L627 473L649 495L671 495L693 495L715 495L737 495L759 495L781 495L803 495L825 495L847 495L869 495M55 341L77 363L99 363L121 363M891 451L913 429L935 429L957 429L979 429M385 385L407 407M1133 429L1155 407L1177 407L1199 407L1221 407L1243 407L1265 407L1287 407L1309 407L1331 385L1353 385L1375 385M1001 429L1023 451L1045 451L1067 451M1111 429L1133 407L1155 385M-11 319L11 341L33 341L55 341L77 341L99 341L121 341L143 363L165 363L187 385L209 385L231 385L253 385L275 385L297 385L319 385L341 385L363 385L385 385L407 385L429 407L451 407L473 407L495 429L517 429L539 429L561 429L583 429L605 429L627 429L649 429L671 429L693 429L715 429L737 429L759 429L781 429L803 429L825 451L847 451L869 451L891 451L913 451L935 451L957 451L979 451L1001 429L1023 429L1045 429L1067 429L1089 429L1111 429L1133 429L1155 429L1177 429L1199 429L1221 429L1243 429L1265 429L1287 429L1309 429L1331 429" stroke="#3a7cc3" stroke-width="3.67"></path>
            <path d="M1325.5 429 a5.5 5.5 0 1 0 11 0 a5.5 5.5 0 1 0 -11 0zM863.5 429 a5.5 5.5 0 1 0 11 0 a5.5 5.5 0 1 0 -11 0zM1105.5 473 a5.5 5.5 0 1 0 11 0 a5.5 5.5 0 1 0 -11 0zM1061.5 407 a5.5 5.5 0 1 0 11 0 a5.5 5.5 0 1 0 -11 0zM1391.5 495 a5.5 5.5 0 1 0 11 0 a5.5 5.5 0 1 0 -11 0zM621.5 385 a5.5 5.5 0 1 0 11 0 a5.5 5.5 0 1 0 -11 0zM1149.5 517 a5.5 5.5 0 1 0 11 0 a5.5 5.5 0 1 0 -11 0zM687.5 407 a5.5 5.5 0 1 0 11 0 a5.5 5.5 0 1 0 -11 0zM709.5 451 a5.5 5.5 0 1 0 11 0 a5.5 5.5 0 1 0 -11 0zM863.5 495 a5.5 5.5 0 1 0 11 0 a5.5 5.5 0 1 0 -11 0zM115.5 363 a5.5 5.5 0 1 0 11 0 a5.5 5.5 0 1 0 -11 0zM973.5 429 a5.5 5.5 0 1 0 11 0 a5.5 5.5 0 1 0 -11 0zM401.5 407 a5.5 5.5 0 1 0 11 0 a5.5 5.5 0 1 0 -11 0zM1369.5 385 a5.5 5.5 0 1 0 11 0 a5.5 5.5 0 1 0 -11 0zM1061.5 451 a5.5 5.5 0 1 0 11 0 a5.5 5.5 0 1 0 -11 0zM1149.5 385 a5.5 5.5 0 1 0 11 0 a5.5 5.5 0 1 0 -11 0z" fill="#3a7cc3"></path>
            <path d="M33 231L55 231M-11 231L11 231L33 231L55 209L77 209" stroke="#dd1133" stroke-width="3.67"></path>
            <path d="M71.5 209 a5.5 5.5 0 1 0 11 0 a5.5 5.5 0 1 0 -11 0zM49.5 231 a5.5 5.5 0 1 0 11 0 a5.5 5.5 0 1 0 -11 0z" fill="#dd1133"></path>
            <path d="M33 385L55 363M11 363L33 363M-11 341L11 363L33 385L55 385L77 385L99 385L121 385L143 385L165 385L187 407L209 407L231 407L253 407L275 407L297 407L319 407" stroke="#3a7cc3" stroke-width="3.67"></path>
            <path d="M313.5 407 a5.5 5.5 0 1 0 11 0 a5.5 5.5 0 1 0 -11 0zM49.5 363 a5.5 5.5 0 1 0 11 0 a5.5 5.5 0 1 0 -11 0zM27.5 363 a5.5 5.5 0 1 0 11 0 a5.5 5.5 0 1 0 -11 0z" fill="#3a7cc3"></path>
            <path d="M253 165L275 187L297 187L319 187L341 187L363 209M1155 187L1177 209L1199 209L1221 209L1243 187L1265 187L1287 187L1309 187L1331 187L1353 187L1375 187L1397 187M231 165L253 187M649 143L671 165L693 165L715 165L737 165L759 165L781 165M1133 187L1155 209M517 143L539 165L561 165L583 165L605 165L627 165L649 165L671 187L693 187M825 143L847 143L869 143L891 143L913 143M473 143L495 165L517 165M165 187L187 165M1067 187L1089 165M341 143L363 165L385 165L407 165L429 165L451 165L473 165L495 187L517 187L539 187L561 187L583 187L605 187M869 165L891 165L913 165L935 165L957 165L979 165L1001 165L1023 165L1045 165L1067 165M1001 187L1023 209L1045 209M957 187L979 209L1001 209L1023 231M-11 209L11 209L33 209L55 187L77 187L99 187L121 187L143 187L165 187L187 187L209 165L231 165L253 165L275 165L297 165L319 165L341 143L363 143L385 143L407 143L429 143L451 143L473 143L495 143L517 143L539 143L561 143L583 143L605 143L627 143L649 143L671 143L693 143L715 143L737 143L759 143L781 143L803 143L825 143L847 165L869 165L891 187L913 187L935 187L957 187L979 187L1001 187L1023 187L1045 187L1067 187L1089 187L1111 187L1133 187L1155 187L1177 187L1199 187" stroke="#3a7cc3" stroke-width="3.67"></path>
            <path d="M1193.5 187 a5.5 5.5 0 1 0 11 0 a5.5 5.5 0 1 0 -11 0zM357.5 209 a5.5 5.5 0 1 0 11 0 a5.5 5.5 0 1 0 -11 0zM1391.5 187 a5.5 5.5 0 1 0 11 0 a5.5 5.5 0 1 0 -11 0zM247.5 187 a5.5 5.5 0 1 0 11 0 a5.5 5.5 0 1 0 -11 0zM775.5 165 a5.5 5.5 0 1 0 11 0 a5.5 5.5 0 1 0 -11 0zM1149.5 209 a5.5 5.5 0 1 0 11 0 a5.5 5.5 0 1 0 -11 0zM687.5 187 a5.5 5.5 0 1 0 11 0 a5.5 5.5 0 1 0 -11 0zM907.5 143 a5.5 5.5 0 1 0 11 0 a5.5 5.5 0 1 0 -11 0zM511.5 165 a5.5 5.5 0 1 0 11 0 a5.5 5.5 0 1 0 -11 0zM181.5 165 a5.5 5.5 0 1 0 11 0 a5.5 5.5 0 1 0 -11 0zM1083.5 165 a5.5 5.5 0 1 0 11 0 a5.5 5.5 0 1 0 -11 0zM599.5 187 a5.5 5.5 0 1 0 11 0 a5.5 5.5 0 1 0 -11 0zM1061.5 165 a5.5 5.5 0 1 0 11 0 a5.5 5.5 0 1 0 -11 0zM1039.5 209 a5.5 5.5 0 1 0 11 0 a5.5 5.5 0 1 0 -11 0zM1017.5 231 a5.5 5.5 0 1 0 11 0 a5.5 5.5 0 1 0 -11 0z" fill="#3a7cc3"></path>
            <path d="M363 429L385 407M341 429L363 407M-11 363L11 385L33 407L55 407L77 407L99 407L121 407L143 407L165 407L187 429L209 429L231 429L253 429L275 429L297 429L319 429L341 429L363 429L385 429L407 429L429 429L451 429L473 429L495 451" stroke="#dd1133" stroke-width="3.67"></path>
            <path d="M489.5 451 a5.5 5.5 0 1 0 11 0 a5.5 5.5 0 1 0 -11 0zM379.5 407 a5.5 5.5 0 1 0 11 0 a5.5 5.5 0 1 0 -11 0zM357.5 407 a5.5 5.5 0 1 0 11 0 a5.5 5.5 0 1 0 -11 0z" fill="#dd1133"></path>
            <path d="M891 121L913 99L935 99M143 121L165 99L187 99L209 99L231 99L253 99L275 77L297 77L319 77L341 77L363 99L385 99L407 99L429 99M583 121L605 99M649 121L671 99L693 99L715 99L737 99L759 77L781 77L803 77L825 77L847 77M121 121L143 143M847 121L869 99L891 99L913 77L935 77L957 77L979 77L1001 55L1023 55L1045 55L1067 55L1089 77M825 121L847 99M209 121L231 121L253 121L275 121L297 121L319 121L341 99M1045 121L1067 143M451 121L473 99L495 99L517 99M77 165L99 165L121 165L143 165L165 165L187 143L209 143M99 143L121 143M781 121L803 99L825 99M-11 187L11 187L33 187L55 165L77 165L99 143L121 121L143 121L165 121L187 121L209 121L231 143L253 143L275 143L297 143L319 143L341 121L363 121L385 121L407 121L429 121L451 121L473 121L495 121L517 121L539 121L561 121L583 121L605 121L627 121L649 121L671 121L693 121L715 121L737 121L759 121L781 121L803 121L825 121L847 121L869 121L891 121L913 121L935 121L957 121L979 121L1001 121L1023 121L1045 121L1067 121L1089 121L1111 121L1133 121" stroke="#dd1133" stroke-width="3.67"></path>
            <path d="M1127.5 121 a5.5 5.5 0 1 0 11 0 a5.5 5.5 0 1 0 -11 0zM929.5 99 a5.5 5.5 0 1 0 11 0 a5.5 5.5 0 1 0 -11 0zM423.5 99 a5.5 5.5 0 1 0 11 0 a5.5 5.5 0 1 0 -11 0zM599.5 99 a5.5 5.5 0 1 0 11 0 a5.5 5.5 0 1 0 -11 0zM841.5 77 a5.5 5.5 0 1 0 11 0 a5.5 5.5 0 1 0 -11 0zM137.5 143 a5.5 5.5 0 1 0 11 0 a5.5 5.5 0 1 0 -11 0zM1083.5 77 a5.5 5.5 0 1 0 11 0 a5.5 5.5 0 1 0 -11 0zM841.5 99 a5.5 5.5 0 1 0 11 0 a5.5 5.5 0 1 0 -11 0zM335.5 99 a5.5 5.5 0 1 0 11 0 a5.5 5.5 0 1 0 -11 0zM1061.5 143 a5.5 5.5 0 1 0 11 0 a5.5 5.5 0 1 0 -11 0zM511.5 99 a5.5 5.5 0 1 0 11 0 a5.5 5.5 0 1 0 -11 0zM203.5 143 a5.5 5.5 0 1 0 11 0 a5.5 5.5 0 1 0 -11 0zM115.5 143 a5.5 5.5 0 1 0 11 0 a5.5 5.5 0 1 0 -11 0zM819.5 99 a5.5 5.5 0 1 0 11 0 a5.5 5.5 0 1 0 -11 0z" fill="#dd1133"></path>
            <path d="M253 451L275 473L297 473L319 473L341 473M385 451L407 473L429 473M495 473L517 495L539 495L561 495L583 495M451 451L473 473L495 495L517 517L539 517L561 517L583 517L605 517L627 517L649 517M363 451L385 473L407 495L429 495M-11 385L11 407L33 429L55 429L77 429L99 429L121 429L143 429L165 429L187 451L209 451L231 451L253 451L275 451L297 451L319 451L341 451L363 451L385 451L407 451L429 451L451 451L473 451L495 473L517 473" stroke="#dd1133" stroke-width="3.67"></path>
            <path d="M511.5 473 a5.5 5.5 0 1 0 11 0 a5.5 5.5 0 1 0 -11 0zM335.5 473 a5.5 5.5 0 1 0 11 0 a5.5 5.5 0 1 0 -11 0zM423.5 473 a5.5 5.5 0 1 0 11 0 a5.5 5.5 0 1 0 -11 0zM577.5 495 a5.5 5.5 0 1 0 11 0 a5.5 5.5 0 1 0 -11 0zM643.5 517 a5.5 5.5 0 1 0 11 0 a5.5 5.5 0 1 0 -11 0zM423.5 495 a5.5 5.5 0 1 0 11 0 a5.5 5.5 0 1 0 -11 0z" fill="#dd1133"></path>
            <path d="M341 55L363 55L385 77L407 77L429 77L451 77M209 77L231 77M121 99L143 99M-11 165L11 165L33 165L55 143L77 143L99 121L121 99L143 77L165 77L187 77L209 77L231 55L253 55L275 55L297 55L319 55L341 55L363 77" stroke="#dd1133" stroke-width="3.67"></path>
            <path d="M357.5 77 a5.5 5.5 0 1 0 11 0 a5.5 5.5 0 1 0 -11 0zM445.5 77 a5.5 5.5 0 1 0 11 0 a5.5 5.5 0 1 0 -11 0zM225.5 77 a5.5 5.5 0 1 0 11 0 a5.5 5.5 0 1 0 -11 0zM137.5 99 a5.5 5.5 0 1 0 11 0 a5.5 5.5 0 1 0 -11 0z" fill="#dd1133"></path>
            <path d="M209 473L231 495L253 495M77 451L99 473L121 473L143 473L165 473M187 473L209 495L231 517M-11 407L11 429L33 451L55 451L77 451L99 451L121 451L143 451L165 451L187 473L209 473L231 473" stroke="#3a7cc3" stroke-width="3.67"></path>
            <path d="M225.5 473 a5.5 5.5 0 1 0 11 0 a5.5 5.5 0 1 0 -11 0zM247.5 495 a5.5 5.5 0 1 0 11 0 a5.5 5.5 0 1 0 -11 0zM159.5 473 a5.5 5.5 0 1 0 11 0 a5.5 5.5 0 1 0 -11 0zM225.5 517 a5.5 5.5 0 1 0 11 0 a5.5 5.5 0 1 0 -11 0z" fill="#3a7cc3"></path>
            <path d="M11 143L33 143M55 121L77 99L99 77L121 55M33 121L55 99L77 77M-11 143L11 143L33 121L55 121L77 121L99 99L121 77L143 55L165 55L187 55L209 55" stroke="#3a7cc3" stroke-width="3.67"></path>
            <path d="M203.5 55 a5.5 5.5 0 1 0 11 0 a5.5 5.5 0 1 0 -11 0zM27.5 143 a5.5 5.5 0 1 0 11 0 a5.5 5.5 0 1 0 -11 0zM115.5 55 a5.5 5.5 0 1 0 11 0 a5.5 5.5 0 1 0 -11 0zM71.5 77 a5.5 5.5 0 1 0 11 0 a5.5 5.5 0 1 0 -11 0z" fill="#3a7cc3"></path>
        </g>
    </g>
    <defs>
        <mask id="SvgjsMask2625">
            <rect width="1440" height="560" fill="#ffffff"></rect>
        </mask>
        <mask id="SvgjsMask2626">
            <rect width="1440" height="560" fill="white"></rect>
            <path d="M1328.25 297 a2.75 2.75 0 1 0 5.5 0 a2.75 2.75 0 1 0 -5.5 0zM536.25 297 a2.75 2.75 0 1 0 5.5 0 a2.75 2.75 0 1 0 -5.5 0zM1372.25 275 a2.75 2.75 0 1 0 5.5 0 a2.75 2.75 0 1 0 -5.5 0zM998.25 319 a2.75 2.75 0 1 0 5.5 0 a2.75 2.75 0 1 0 -5.5 0zM668.25 319 a2.75 2.75 0 1 0 5.5 0 a2.75 2.75 0 1 0 -5.5 0zM1086.25 275 a2.75 2.75 0 1 0 5.5 0 a2.75 2.75 0 1 0 -5.5 0zM1306.25 275 a2.75 2.75 0 1 0 5.5 0 a2.75 2.75 0 1 0 -5.5 0zM1306.25 341 a2.75 2.75 0 1 0 5.5 0 a2.75 2.75 0 1 0 -5.5 0zM888.25 253 a2.75 2.75 0 1 0 5.5 0 a2.75 2.75 0 1 0 -5.5 0zM910.25 231 a2.75 2.75 0 1 0 5.5 0 a2.75 2.75 0 1 0 -5.5 0zM250.25 297 a2.75 2.75 0 1 0 5.5 0 a2.75 2.75 0 1 0 -5.5 0zM30.25 297 a2.75 2.75 0 1 0 5.5 0 a2.75 2.75 0 1 0 -5.5 0zM734.25 341 a2.75 2.75 0 1 0 5.5 0 a2.75 2.75 0 1 0 -5.5 0zM624.25 319 a2.75 2.75 0 1 0 5.5 0 a2.75 2.75 0 1 0 -5.5 0zM800.25 363 a2.75 2.75 0 1 0 5.5 0 a2.75 2.75 0 1 0 -5.5 0zM624.25 275 a2.75 2.75 0 1 0 5.5 0 a2.75 2.75 0 1 0 -5.5 0z" fill="black"></path>
            <path d="M492.25 341 a2.75 2.75 0 1 0 5.5 0 a2.75 2.75 0 1 0 -5.5 0zM272.25 363 a2.75 2.75 0 1 0 5.5 0 a2.75 2.75 0 1 0 -5.5 0zM360.25 341 a2.75 2.75 0 1 0 5.5 0 a2.75 2.75 0 1 0 -5.5 0zM470.25 363 a2.75 2.75 0 1 0 5.5 0 a2.75 2.75 0 1 0 -5.5 0zM338.25 341 a2.75 2.75 0 1 0 5.5 0 a2.75 2.75 0 1 0 -5.5 0zM206.25 363 a2.75 2.75 0 1 0 5.5 0 a2.75 2.75 0 1 0 -5.5 0zM338.25 363 a2.75 2.75 0 1 0 5.5 0 a2.75 2.75 0 1 0 -5.5 0z" fill="black"></path>
            <path d="M294.25 275 a2.75 2.75 0 1 0 5.5 0 a2.75 2.75 0 1 0 -5.5 0zM118.25 231 a2.75 2.75 0 1 0 5.5 0 a2.75 2.75 0 1 0 -5.5 0zM250.25 231 a2.75 2.75 0 1 0 5.5 0 a2.75 2.75 0 1 0 -5.5 0zM316.25 275 a2.75 2.75 0 1 0 5.5 0 a2.75 2.75 0 1 0 -5.5 0z" fill="black"></path>
            <path d="M1328.25 429 a2.75 2.75 0 1 0 5.5 0 a2.75 2.75 0 1 0 -5.5 0zM866.25 429 a2.75 2.75 0 1 0 5.5 0 a2.75 2.75 0 1 0 -5.5 0zM1108.25 473 a2.75 2.75 0 1 0 5.5 0 a2.75 2.75 0 1 0 -5.5 0zM1064.25 407 a2.75 2.75 0 1 0 5.5 0 a2.75 2.75 0 1 0 -5.5 0zM1394.25 495 a2.75 2.75 0 1 0 5.5 0 a2.75 2.75 0 1 0 -5.5 0zM624.25 385 a2.75 2.75 0 1 0 5.5 0 a2.75 2.75 0 1 0 -5.5 0zM1152.25 517 a2.75 2.75 0 1 0 5.5 0 a2.75 2.75 0 1 0 -5.5 0zM690.25 407 a2.75 2.75 0 1 0 5.5 0 a2.75 2.75 0 1 0 -5.5 0zM712.25 451 a2.75 2.75 0 1 0 5.5 0 a2.75 2.75 0 1 0 -5.5 0zM866.25 495 a2.75 2.75 0 1 0 5.5 0 a2.75 2.75 0 1 0 -5.5 0zM118.25 363 a2.75 2.75 0 1 0 5.5 0 a2.75 2.75 0 1 0 -5.5 0zM976.25 429 a2.75 2.75 0 1 0 5.5 0 a2.75 2.75 0 1 0 -5.5 0zM404.25 407 a2.75 2.75 0 1 0 5.5 0 a2.75 2.75 0 1 0 -5.5 0zM1372.25 385 a2.75 2.75 0 1 0 5.5 0 a2.75 2.75 0 1 0 -5.5 0zM1064.25 451 a2.75 2.75 0 1 0 5.5 0 a2.75 2.75 0 1 0 -5.5 0zM1152.25 385 a2.75 2.75 0 1 0 5.5 0 a2.75 2.75 0 1 0 -5.5 0z" fill="black"></path>
            <path d="M74.25 209 a2.75 2.75 0 1 0 5.5 0 a2.75 2.75 0 1 0 -5.5 0zM52.25 231 a2.75 2.75 0 1 0 5.5 0 a2.75 2.75 0 1 0 -5.5 0z" fill="black"></path>
            <path d="M316.25 407 a2.75 2.75 0 1 0 5.5 0 a2.75 2.75 0 1 0 -5.5 0zM52.25 363 a2.75 2.75 0 1 0 5.5 0 a2.75 2.75 0 1 0 -5.5 0zM30.25 363 a2.75 2.75 0 1 0 5.5 0 a2.75 2.75 0 1 0 -5.5 0z" fill="black"></path>
            <path d="M1196.25 187 a2.75 2.75 0 1 0 5.5 0 a2.75 2.75 0 1 0 -5.5 0zM360.25 209 a2.75 2.75 0 1 0 5.5 0 a2.75 2.75 0 1 0 -5.5 0zM1394.25 187 a2.75 2.75 0 1 0 5.5 0 a2.75 2.75 0 1 0 -5.5 0zM250.25 187 a2.75 2.75 0 1 0 5.5 0 a2.75 2.75 0 1 0 -5.5 0zM778.25 165 a2.75 2.75 0 1 0 5.5 0 a2.75 2.75 0 1 0 -5.5 0zM1152.25 209 a2.75 2.75 0 1 0 5.5 0 a2.75 2.75 0 1 0 -5.5 0zM690.25 187 a2.75 2.75 0 1 0 5.5 0 a2.75 2.75 0 1 0 -5.5 0zM910.25 143 a2.75 2.75 0 1 0 5.5 0 a2.75 2.75 0 1 0 -5.5 0zM514.25 165 a2.75 2.75 0 1 0 5.5 0 a2.75 2.75 0 1 0 -5.5 0zM184.25 165 a2.75 2.75 0 1 0 5.5 0 a2.75 2.75 0 1 0 -5.5 0zM1086.25 165 a2.75 2.75 0 1 0 5.5 0 a2.75 2.75 0 1 0 -5.5 0zM602.25 187 a2.75 2.75 0 1 0 5.5 0 a2.75 2.75 0 1 0 -5.5 0zM1064.25 165 a2.75 2.75 0 1 0 5.5 0 a2.75 2.75 0 1 0 -5.5 0zM1042.25 209 a2.75 2.75 0 1 0 5.5 0 a2.75 2.75 0 1 0 -5.5 0zM1020.25 231 a2.75 2.75 0 1 0 5.5 0 a2.75 2.75 0 1 0 -5.5 0z" fill="black"></path>
            <path d="M492.25 451 a2.75 2.75 0 1 0 5.5 0 a2.75 2.75 0 1 0 -5.5 0zM382.25 407 a2.75 2.75 0 1 0 5.5 0 a2.75 2.75 0 1 0 -5.5 0zM360.25 407 a2.75 2.75 0 1 0 5.5 0 a2.75 2.75 0 1 0 -5.5 0z" fill="black"></path>
            <path d="M1130.25 121 a2.75 2.75 0 1 0 5.5 0 a2.75 2.75 0 1 0 -5.5 0zM932.25 99 a2.75 2.75 0 1 0 5.5 0 a2.75 2.75 0 1 0 -5.5 0zM426.25 99 a2.75 2.75 0 1 0 5.5 0 a2.75 2.75 0 1 0 -5.5 0zM602.25 99 a2.75 2.75 0 1 0 5.5 0 a2.75 2.75 0 1 0 -5.5 0zM844.25 77 a2.75 2.75 0 1 0 5.5 0 a2.75 2.75 0 1 0 -5.5 0zM140.25 143 a2.75 2.75 0 1 0 5.5 0 a2.75 2.75 0 1 0 -5.5 0zM1086.25 77 a2.75 2.75 0 1 0 5.5 0 a2.75 2.75 0 1 0 -5.5 0zM844.25 99 a2.75 2.75 0 1 0 5.5 0 a2.75 2.75 0 1 0 -5.5 0zM338.25 99 a2.75 2.75 0 1 0 5.5 0 a2.75 2.75 0 1 0 -5.5 0zM1064.25 143 a2.75 2.75 0 1 0 5.5 0 a2.75 2.75 0 1 0 -5.5 0zM514.25 99 a2.75 2.75 0 1 0 5.5 0 a2.75 2.75 0 1 0 -5.5 0zM206.25 143 a2.75 2.75 0 1 0 5.5 0 a2.75 2.75 0 1 0 -5.5 0zM118.25 143 a2.75 2.75 0 1 0 5.5 0 a2.75 2.75 0 1 0 -5.5 0zM822.25 99 a2.75 2.75 0 1 0 5.5 0 a2.75 2.75 0 1 0 -5.5 0z" fill="black"></path>
            <path d="M514.25 473 a2.75 2.75 0 1 0 5.5 0 a2.75 2.75 0 1 0 -5.5 0zM338.25 473 a2.75 2.75 0 1 0 5.5 0 a2.75 2.75 0 1 0 -5.5 0zM426.25 473 a2.75 2.75 0 1 0 5.5 0 a2.75 2.75 0 1 0 -5.5 0zM580.25 495 a2.75 2.75 0 1 0 5.5 0 a2.75 2.75 0 1 0 -5.5 0zM646.25 517 a2.75 2.75 0 1 0 5.5 0 a2.75 2.75 0 1 0 -5.5 0zM426.25 495 a2.75 2.75 0 1 0 5.5 0 a2.75 2.75 0 1 0 -5.5 0z" fill="black"></path>
            <path d="M360.25 77 a2.75 2.75 0 1 0 5.5 0 a2.75 2.75 0 1 0 -5.5 0zM448.25 77 a2.75 2.75 0 1 0 5.5 0 a2.75 2.75 0 1 0 -5.5 0zM228.25 77 a2.75 2.75 0 1 0 5.5 0 a2.75 2.75 0 1 0 -5.5 0zM140.25 99 a2.75 2.75 0 1 0 5.5 0 a2.75 2.75 0 1 0 -5.5 0z" fill="black"></path>
            <path d="M228.25 473 a2.75 2.75 0 1 0 5.5 0 a2.75 2.75 0 1 0 -5.5 0zM250.25 495 a2.75 2.75 0 1 0 5.5 0 a2.75 2.75 0 1 0 -5.5 0zM162.25 473 a2.75 2.75 0 1 0 5.5 0 a2.75 2.75 0 1 0 -5.5 0zM228.25 517 a2.75 2.75 0 1 0 5.5 0 a2.75 2.75 0 1 0 -5.5 0z" fill="black"></path>
            <path d="M206.25 55 a2.75 2.75 0 1 0 5.5 0 a2.75 2.75 0 1 0 -5.5 0zM30.25 143 a2.75 2.75 0 1 0 5.5 0 a2.75 2.75 0 1 0 -5.5 0zM118.25 55 a2.75 2.75 0 1 0 5.5 0 a2.75 2.75 0 1 0 -5.5 0zM74.25 77 a2.75 2.75 0 1 0 5.5 0 a2.75 2.75 0 1 0 -5.5 0z" fill="black"></path>
        </mask>
    </defs>
</svg>